<?xml version="1.0" encoding="utf-8"?>
<!-- Generator: Adobe Illustrator 16.0.0, SVG Export Plug-In . SVG Version: 6.00 Build 0)  -->
<!DOCTYPE svg PUBLIC "-//W3C//DTD SVG 1.1//EN" "http://www.w3.org/Graphics/SVG/1.1/DTD/svg11.dtd">
<svg version="1.1" id="Layer_1" xmlns="http://www.w3.org/2000/svg" xmlns:xlink="http://www.w3.org/1999/xlink" x="0px" y="0px"
	 width="56px" height="50px" viewBox="0 0 56 50" enable-background="new 0 0 56 50" xml:space="preserve">
<g>
	<circle fill="#041938" cx="28" cy="25" r="2"/>
	<path fill="#041938" d="M28,2C15.3,2,5,12.3,5,25s10.3,23,23,23s23-10.3,23-23S40.7,2,28,2z M42.5,25.6l-1.9,1
		c-0.1,0.5-0.1,1-0.3,1.4l1.4,1.6c0.399,0.5,0.5,1.2,0.2,1.7L40.3,34c-0.3,0.5-0.8,0.7-1.3,0.7h-0.3L36.6,34.3
		C36.2,34.6,35.9,35,35.5,35.2v2.2c0,0.6-0.4,1.199-1,1.398L31.7,40c-0.2,0.1-0.3,0.1-0.5,0.1c-0.4,0-0.9-0.199-1.101-0.5L28.7,37.9
		c-0.5,0-1,0-1.5,0L25.8,39.6c-0.4,0.5-1.1,0.7-1.6,0.5L21.3,39c-0.6-0.2-1-0.8-1-1.4V35.4c-0.4-0.301-0.8-0.602-1.1-0.9l-2.4,0.4
		c-0.5,0-1-0.301-1.3-0.7L14,31.4c-0.3-0.5-0.2-1.2,0.2-1.7l1.4-1.601c-0.1-0.5-0.2-1-0.3-1.399l-1.9-1c-0.5-0.3-0.8-0.9-0.7-1.5
		l0.5-3.1c0.1-0.6,0.6-1.1,1.2-1.2l2.1-0.3c0.2-0.4,0.5-0.9,0.7-1.3l-0.8-2c-0.2-0.6-0.1-1.3,0.4-1.7l2.4-2c0.5-0.4,1.2-0.4,1.7-0.1
		l1.8,1.1c0.5-0.2,0.9-0.4,1.4-0.5l0.7-2c0.2-0.6,0.8-1,1.4-1h3.1c0.601,0,1.2,0.4,1.4,1l0.7,2c0.5,0.1,0.898,0.3,1.398,0.5
		l1.801-1.1c0.5-0.3,1.199-0.3,1.699,0.1l2.4,2c0.5,0.4,0.699,1.1,0.398,1.7l-0.8,2c0.3,0.4,0.5,0.8,0.7,1.3l2.1,0.3
		c0.602,0.1,1.102,0.6,1.2,1.2l0.5,3.1C43.4,24.7,43.1,25.3,42.5,25.6z"/>
	<path fill="#041938" d="M38,21.2l-0.2-0.5c-0.3-0.7-0.7-1.3-1.1-1.9l-0.3-0.4l1-2.7L35.6,14.2L33.2,15.7l-0.5-0.2
		c-0.601-0.3-1.3-0.6-2-0.7l-0.5-0.1L29.3,12h-2.4L26,14.7l-0.5,0.1c-0.7,0.2-1.4,0.4-2,0.7L23,15.7l-2.4-1.5l-1.8,1.5l1,2.7
		l-0.3,0.4c-0.4,0.6-0.8,1.2-1.1,1.9L18,21.2l-2.8,0.4L14.8,24l2.5,1.4v0.5c0.1,0.699,0.2,1.398,0.4,2.1l0.1,0.5L16,30.7l1.2,2
		l2.8-0.5l0.4,0.399c0.5,0.5,1.1,1,1.7,1.399l0.4,0.3L22.4,37.1l2.2,0.801l1.8-2.2l0.5,0.1c0.7,0.101,1.5,0.101,2.2,0l0.5-0.1
		l1.801,2.2L33.6,37.1l-0.1-2.8L34,34c0.6-0.4,1.1-0.9,1.7-1.4L36.1,32.2l2.801,0.5l1.199-2L38.2,28.6l0.1-0.5
		c0.2-0.699,0.3-1.398,0.4-2.1v-0.5l2.5-1.4l-0.4-2.3L38,21.2z M28,29c-2.2,0-4-1.8-4-4s1.8-4,4-4s4,1.8,4,4S30.2,29,28,29z"/>
	<path fill="#041938" d="M0,0v50h56V0H0z M28,50C14.2,50,3,38.8,3,25S14.2,0,28,0s25,11.2,25,25S41.8,50,28,50z"/>
</g>
</svg>
