<?xml version="1.0" encoding="utf-8"?>
<!-- Generator: Adobe Illustrator 16.0.0, SVG Export Plug-In . SVG Version: 6.00 Build 0)  -->
<!DOCTYPE svg PUBLIC "-//W3C//DTD SVG 1.1//EN" "http://www.w3.org/Graphics/SVG/1.1/DTD/svg11.dtd">
<svg version="1.1" id="Layer_1" xmlns="http://www.w3.org/2000/svg" xmlns:xlink="http://www.w3.org/1999/xlink" x="0px" y="0px"
	 width="420px" height="325px" viewBox="0 0 420 325" enable-background="new 0 0 420 325" xml:space="preserve">
<g id="WEB_DESIGN">
</g>
<g id="APP_DESIGN">
</g>
<g id="ECOMMERCE">
</g>
<g id="WORDPRESS">
	<g>
		<path fill="#041938" d="M35,271c0,1.1,0.9,2,2,2h46V94H35V271z"/>
		<path fill="#041938" d="M385,70H35v20h350V70z M230.9,82h-42.7v-4h42.7V82z"/>
		<path fill="#041938" d="M214.5,227.4l1.1-0.102l7.301,9L234.3,232.1l-0.2-11.601l0.9-0.601c2.4-1.699,4.8-3.601,6.9-5.801l0.8-0.8
			l11.399,2.2L260.2,205l-7.601-8.8l0.301-1c0.8-2.9,1.3-5.8,1.5-8.8l0.1-1.102l10.2-5.6l-2.101-12l-11.5-1.801l-0.399-1
			c-1.2-2.699-2.7-5.299-4.5-7.799l-0.601-0.9l4.199-10.8l-9.3-7.8l-9.899,6l-1-0.5c-2.699-1.3-5.5-2.3-8.399-3.1l-1.101-0.3
			l-3.801-11h-12.2l-3.8,11l-1.1,0.3c-2.9,0.7-5.7,1.8-8.4,3.1l-1,0.5l-9.9-6l-9.3,7.8l4.2,10.8l-0.6,0.9c-1.7,2.4-3.3,5-4.5,7.799
			l-0.4,1l-11.5,1.801l-2.1,12l10.2,5.6l0.1,1.102c0.2,3,0.7,6,1.5,8.8l0.3,1l-7.6,8.8l6.1,10.5l11.4-2.2l0.8,0.8
			c2.1,2.2,4.4,4.102,6.9,5.801l0.9,0.601l-0.2,11.601l11.4,4.199l7.3-9l1.1,0.102C208.5,227.7,211.5,227.7,214.5,227.4z M193,183
			c0-9.4,7.6-17,17-17c9.4,0,17,7.6,17,17s-7.6,17-17,17C200.6,200,193,192.4,193,183z"/>
		<path fill="#041938" d="M383,273c1.1,0,2-0.9,2-2V94h-49v179H383z"/>
		<path fill="#041938" d="M332,273V94H87v179h114v4H37c-3.3,0-6-2.7-6-6V57c0-3.3,2.7-6,6-6h171V0H0v325h208v-52H332z M206.2,231.5
			l-6,7.4c-1,1.3-2.8,1.8-4.3,1.199l-11.6-4.199c-1.6-0.602-2.6-2.102-2.5-3.7l0.2-9.5c-2-1.5-4-3.101-5.8-4.9l-9.4,1.8
			c-1.6,0.301-3.3-0.5-4.1-1.898l-6.2-10.7c-0.8-1.399-0.7-3.2,0.4-4.5l6.3-7.2c-0.6-2.398-1.1-5-1.3-7.5l-8.4-4.6
			c-1.4-0.801-2.2-2.4-1.9-4.102l2.1-12.1c0.3-1.6,1.6-2.9,3.2-3.2l9.4-1.5c1.1-2.3,2.4-4.5,3.8-6.6l-3.4-8.9
			c-0.6-1.5-0.1-3.3,1.1-4.4l9.4-7.9c1.2-1,3.1-1.2,4.5-0.4l8.2,4.9c2.3-1.1,4.7-1.9,7.2-2.6l3.1-9c0.5-1.6,2-2.6,3.7-2.6h12.3
			c1.7,0,3.1,1.1,3.7,2.6l3.1,9c2.5,0.7,4.8,1.5,7.2,2.6l8.2-4.9c1.398-0.8,3.3-0.7,4.5,0.4l9.398,7.9c1.301,1.1,1.7,2.8,1.102,4.4
			l-3.4,8.9c1.4,2.1,2.7,4.3,3.8,6.6l9.4,1.5c1.6,0.3,2.899,1.5,3.2,3.2l2.1,12.1c0.3,1.602-0.5,3.301-1.9,4.102l-8.398,4.6
			c-0.2,2.5-0.7,5-1.301,7.5l6.301,7.2c1.1,1.2,1.3,3,0.398,4.5l-6.199,10.7c-0.699,1.199-2,1.898-3.399,1.898c-0.2,0-0.5,0-0.7-0.1
			l-9.398-1.8c-1.801,1.8-3.801,3.399-5.801,4.899l0.199,9.601c0,1.7-1,3.1-2.5,3.7l-11.6,4.199c-0.4,0.199-0.9,0.199-1.301,0.199
			c-1.199,0-2.301-0.5-3-1.398l-6-7.4C211.3,231.7,208.7,231.7,206.2,231.5z"/>
		<path fill="#041938" d="M212,0v55H37c-1.1,0-2,0.9-2,2v9h350v-9c0-1.1-0.9-2-2-2H219v-4h164c3.3,0,6,2.7,6,6v214c0,3.3-2.7,6-6,6
			H212v48h208V0H212z M43,63c-1.1,0-2-0.9-2-2s0.9-2,2-2s2,0.9,2,2S44.1,63,43,63z M51,63c-1.1,0-2-0.9-2-2s0.9-2,2-2s2,0.9,2,2
			S52.1,63,51,63z M59,63c-1.1,0-2-0.9-2-2s0.9-2,2-2s2,0.9,2,2S60.1,63,59,63z"/>
		<path fill="#041938" d="M223,183c0-7.2-5.8-13-13-13s-13,5.8-13,13s5.8,13,13,13S223,190.2,223,183z"/>
	</g>
</g>
</svg>
